<svg xmlns="http://www.w3.org/2000/svg" viewBox="0 0 288.13 95.53"><g id="Capa_2" data-name="Capa 2"><g id="Capa_1-2" data-name="Capa 1"><path d="M12.61,88.66a24.44,24.44,0,0,1-9.19-4.5A8.87,8.87,0,0,1,0,77.94V77a17.59,17.59,0,0,1,.54-4.23A53.9,53.9,0,0,1,5.77,60.28a117.4,117.4,0,0,1,7.39-11.53q4.72-6.63,10-12.71c2.7-3.06,5.58-6.12,8.56-8.92,2.79-2.79,5.67-5.58,8.74-8.11,2.79-2.43,5.67-4.77,8.56-6.94A93.91,93.91,0,0,1,59.56,5a47.09,47.09,0,0,1,5.77-2.89,23.48,23.48,0,0,1,6.48-2c.18,0,.45-.09.63-.09a5.76,5.76,0,0,1,4.87,3,4.58,4.58,0,0,1,.27,1.54,4.38,4.38,0,0,1-.09,1.08A11.56,11.56,0,0,1,75.6,9.73a66.43,66.43,0,0,1-5.68,7.57c-1.53,2-3.15,3.87-4.77,5.77-2.89,3.24-5.86,6.3-9,9.28a83.1,83.1,0,0,1-7.21,6,1.45,1.45,0,0,1-.81.27c-.36,0-.63-.19-.9-.64a1,1,0,0,1-.09-.45.66.66,0,0,1,.18-.54l.27-.27c1.62-1.35,3.06-2.79,4.5-4.23,1.62-1.53,3.06-3.25,4.6-4.87,2.34-2.43,4.59-5,6.75-7.66,1-1.17,2-2.34,3-3.6,2.16-2.88,4.41-5.77,6.31-8.83a11.66,11.66,0,0,0,1.8-3.7,1,1,0,0,0,.09-.45c0-.27-.18-.36-.45-.36H73.8a20.79,20.79,0,0,0-2.53.63A58.4,58.4,0,0,0,63,7.39,120.63,120.63,0,0,0,50.1,15.86,152.44,152.44,0,0,0,37.75,26.13c-2.16,2.07-4.41,4.15-6.48,6.22-3.88,4-7.57,8.11-11.09,12.34A147.9,147.9,0,0,0,11.35,57,70.66,70.66,0,0,0,4.51,69.83a23.56,23.56,0,0,0-2,8.56v.45a5.42,5.42,0,0,0,2.26,4.51,19.92,19.92,0,0,0,6.57,3.06,38.58,38.58,0,0,0,12,1.62h2.25a52.08,52.08,0,0,0,14.78-2.61,77,77,0,0,0,7.48-3c3.06-1.35,5.94-3.07,8.92-4.6a2.07,2.07,0,0,1,.81-.27,1.22,1.22,0,0,1,1.08.81.68.68,0,0,1,.09.36.49.49,0,0,1-.27.45c-1.89.9-3.7,2.08-5.5,3L49.74,83.8A53.86,53.86,0,0,1,38.3,88.21a46.88,46.88,0,0,1-9.38,1.62,40.81,40.81,0,0,1-4.77.19h-.81A48,48,0,0,1,12.61,88.66Z"/><path d="M51.26,64.68a1.76,1.76,0,0,0-1.46,1.1,17.17,17.17,0,0,0-2.2,4.31,3.17,3.17,0,0,0-.09.82c0,.74.36,1,1.19,1h.55a12,12,0,0,0,3.11-1,59.36,59.36,0,0,0,11.37-7.06c.46-.36.83-.73,1.29-1.1.18-.18.27-.27.45-.27a.68.68,0,0,1,.37.18.51.51,0,0,1,.18.46.58.58,0,0,1-.09.37,2.71,2.71,0,0,1-.64.82,55.78,55.78,0,0,1-8.62,6.14c-1.37.83-2.84,1.65-4.31,2.39a7.21,7.21,0,0,1-2.2.82,3.13,3.13,0,0,1-.91.09,3.33,3.33,0,0,1-2.57-1.28,4.75,4.75,0,0,1-1.1-3v-.74a9.35,9.35,0,0,1,1-3.21,25.68,25.68,0,0,1,6.6-8.43,8.36,8.36,0,0,1,3.67-1.93,4.7,4.7,0,0,1,1-.18,2.32,2.32,0,0,1,2,1,2.46,2.46,0,0,1,.28,3.39,14.59,14.59,0,0,1-6.42,5.13,3,3,0,0,1-.92.19,4.5,4.5,0,0,1-1.1.09A.83.83,0,0,0,51.26,64.68Zm6.33-6.24a14.28,14.28,0,0,0-4.68,3.76A9,9,0,0,0,57.59,58.44Z"/><path d="M75.24,56.66a14.23,14.23,0,0,0-7.06,9.72,27.12,27.12,0,0,0-.64,3.85v.27c0,.28.09.46.27.46l.55-.18c2.11-.73,4.22-1.47,6.23-2.29a75.55,75.55,0,0,0,7.8-3.39A13.34,13.34,0,0,0,85.78,63c.18-.09.27-.19.46-.28a.33.33,0,0,1,.27-.09.69.69,0,0,1,.46.18c.09.19.18.28.18.46a.71.71,0,0,1-.18.37,2.72,2.72,0,0,1-1,.82,41.52,41.52,0,0,1-7.79,4.13C75,70,71.75,71.24,68.45,72.43a1.3,1.3,0,0,0-1,1.28c-.09.92-.09,1.84-.09,2.75v2.3a16.4,16.4,0,0,1-.09,2.1c-.18,3-.37,6-1.65,8.9a8.85,8.85,0,0,1-6.32,5.31,20.82,20.82,0,0,1-4.13.46,22.15,22.15,0,0,1-6.88-1.1A16.48,16.48,0,0,1,41.77,91a8.78,8.78,0,0,1-1.65-2A6.21,6.21,0,0,1,39,85.63,6.4,6.4,0,0,1,41,81.23a14.71,14.71,0,0,1,5-3.3,98.63,98.63,0,0,1,10-3.12c2.66-.73,5.41-1.56,8-2.47.92-.28.92-.37.92-1.19a42.31,42.31,0,0,1,.36-6.79A14,14,0,0,1,74.5,53.45,7.5,7.5,0,0,1,76.89,53a3.12,3.12,0,0,1,2.84,1.93,1.38,1.38,0,0,1,.09.64,1.4,1.4,0,0,1-.18.83,6.08,6.08,0,0,1-1.84,2.2.78.78,0,0,1-.55.27.54.54,0,0,1-.36-.09,1,1,0,0,1-.55-.82c0-.1.09-.19.09-.28a2.75,2.75,0,0,1,.36-.73,2.08,2.08,0,0,0,.28-.92v-.18A16.33,16.33,0,0,0,75.24,56.66ZM64.51,73.81a.33.33,0,0,0-.27.09l-2.2.82c-3.86,1.28-7.8,2.48-11.65,3.76a20.52,20.52,0,0,0-5,2.2,10.82,10.82,0,0,0-3.76,3.58,5.42,5.42,0,0,0-.73,2.56,4.58,4.58,0,0,0,1.83,3.49,18.29,18.29,0,0,0,1.65,1,19.62,19.62,0,0,0,9.26,2.29,20.82,20.82,0,0,0,2.57-.19,8.52,8.52,0,0,0,7.24-5.22,15,15,0,0,0,.83-2.84,45.61,45.61,0,0,0,.64-7.8v-3.2C64.88,74,64.79,73.81,64.51,73.81Z"/><path d="M86.43,72a7.37,7.37,0,0,1-1.79.79,1.88,1.88,0,0,1-.69.1A1.77,1.77,0,0,1,82.46,72a3.76,3.76,0,0,1-.69-2,2.74,2.74,0,0,1,.1-.89A10.19,10.19,0,0,1,83.45,66,16.86,16.86,0,0,1,92,60a8,8,0,0,1,2.18-.39,3.83,3.83,0,0,1,2.18.69.59.59,0,0,0,.39.1c.2,0,.4-.2.6-.4,1.29-1.38,2.48-2.67,3.76-4.06a2.85,2.85,0,0,0,.5-.59,1.18,1.18,0,0,1,.79-.4,1.46,1.46,0,0,1,.8.5,1.8,1.8,0,0,1,0,2.67,97,97,0,0,0-7.54,11.7A30.3,30.3,0,0,0,94.26,73a5.92,5.92,0,0,0-.6,1.88h.2c.4,0,.6-.3.89-.5a47.34,47.34,0,0,0,6-5l3.86-3.87c.2-.19.4-.49.6-.49s.2,0,.39.2a.87.87,0,0,1,.3.49,1,1,0,0,1-.39.7,90.83,90.83,0,0,1-6.64,6.83l-3.57,3c-.3.19-.6.39-1,.59a.9.9,0,0,1-.5.1,1.2,1.2,0,0,1-.89-.4,3.16,3.16,0,0,1-.79-1.88,9.35,9.35,0,0,1,.39-2.87,57.36,57.36,0,0,1,2.18-5.65,11.87,11.87,0,0,0,.6-1.09c-.1,0-.1-.1-.2-.2L90.29,69A37.52,37.52,0,0,1,86.43,72Zm7.83-9.12c-4.07,1.58-7.63,3.86-10.11,7.73C88.41,69.09,91.18,65.72,94.26,62.85Z"/><path d="M122,57.23a106.13,106.13,0,0,0-12.19,11.82c-.91,1-1.74,2-2.75,3a1.86,1.86,0,0,1-1.28.73c-.37,0-.83-.36-1.38-.91a3.13,3.13,0,0,1-.64-1.93v-.46a31.37,31.37,0,0,1,.92-3.11,48.1,48.1,0,0,1,7.79-14.12c.46-.55.83-.83,1.28-.83.28,0,.65.28,1.1.74a2.53,2.53,0,0,1,.65.73,1.25,1.25,0,0,1,.27.73,1.09,1.09,0,0,1-.37.74,61.15,61.15,0,0,0-8.25,14.21.82.82,0,0,0-.27.64v.18a4.89,4.89,0,0,0,1-.92l6.51-7.33a86.77,86.77,0,0,1,6.5-6.51A19.16,19.16,0,0,1,123,53.1a1.54,1.54,0,0,1,.83-.18,1.45,1.45,0,0,1,1.1.37,2.53,2.53,0,0,1,1,1.92,2.61,2.61,0,0,1-.09.83c-.28.91-.46,1.83-.74,2.75v.36c0,.37.09.55.55.74a11.12,11.12,0,0,0,3.76.82,6.52,6.52,0,0,0,1.28-.09,1.2,1.2,0,0,1,.55-.09c.46,0,1,.37,1,.82v.1c0,.36-.36.45-.73.64-.09,0-.18.09-.28.09a11.41,11.41,0,0,1-1.74.18,8.31,8.31,0,0,1-5.41-2A2.94,2.94,0,0,1,122.89,58a2.55,2.55,0,0,1,.09-.82v-.46A1.24,1.24,0,0,0,122,57.23Z"/><path d="M167.09,91.53A126.67,126.67,0,0,1,148,86.67c-4-1.37-7.88-3.11-11.82-4.86-1.38-.64-2.84-1.19-4.22-1.83a2.13,2.13,0,0,0-1-.27,2.69,2.69,0,0,0-.82.18,9.6,9.6,0,0,1-3.85.73,11.63,11.63,0,0,1-2.48-.27,5,5,0,0,1-3.3-2.2,10.16,10.16,0,0,1-.55-.92,2,2,0,0,1-.09-.73c0-.74.55-1.29,1.47-1.47h.55a11.1,11.1,0,0,1,2.47.37,41.9,41.9,0,0,1,5.69,1.83,1.37,1.37,0,0,0,.82.18A1.47,1.47,0,0,0,132,77a36.11,36.11,0,0,0,6.42-7.06c3.39-4.77,6.23-9.81,9.26-14.76,1.19-2,2.38-3.94,3.57-6a1.45,1.45,0,0,0,.28-.83,1.2,1.2,0,0,0-.28-.64c-.09-.18-.18-.27-.18-.46s.18-.46.64-.46c.83,0,1.19-.45,1.56-1.1,4.31-7,8.53-14.2,13.2-21A119.46,119.46,0,0,1,177.18,11,42.52,42.52,0,0,1,187,2.7a16,16,0,0,1,6-2.48,6.13,6.13,0,0,1,1.28-.09,5.6,5.6,0,0,1,5.59,5v.74a14.11,14.11,0,0,1-.46,3.39,28.48,28.48,0,0,1-3.3,7.7,74.66,74.66,0,0,1-13.84,17.42A65,65,0,0,1,167,45.42a31.91,31.91,0,0,1-8.62,3,22.81,22.81,0,0,0-2.47.19,1.63,1.63,0,0,0-1.29.82c-2,3.3-4.12,6.6-6.14,9.81C145.64,63.57,142.8,68,139.59,72a39.25,39.25,0,0,1-5.87,5.87c-.27.28-.45.46-.45.55s.18.28.64.46a123.58,123.58,0,0,0,31.44,10.64,105.32,105.32,0,0,0,10.82,1.64c1.37.1,2.75.19,4.12.19A26.37,26.37,0,0,0,185,91a8.39,8.39,0,0,0,5-2.57,8.27,8.27,0,0,0,1-1.55c.18-.28.27-.65.64-.65h.19a1.09,1.09,0,0,1,.73,1,.55.55,0,0,1-.09.37,6.87,6.87,0,0,1-1.2,2.11A8.46,8.46,0,0,1,186,92.54a25.16,25.16,0,0,1-4.13.46h-.64A73.85,73.85,0,0,1,167.09,91.53Zm-44-14.39h-.18a.69.69,0,0,0-.46.09.82.82,0,0,0-.74.46v.09c0,.37.28.55.46.73a4.63,4.63,0,0,0,1.19.55,7.45,7.45,0,0,0,2,.28,8,8,0,0,0,3.21-.64A16.28,16.28,0,0,0,123.09,77.14ZM157,46.52c.27,0,.55-.09.73-.09a32.15,32.15,0,0,0,8.62-3.12,69.19,69.19,0,0,0,15.86-11.37,68.5,68.5,0,0,0,12.65-16.77,28,28,0,0,0,2.93-7.52,20.91,20.91,0,0,0,.28-2.48,4.58,4.58,0,0,0-.09-1.1c-.28-1.1-.64-1.65-1.93-1.65h-.55a13.47,13.47,0,0,0-5.22,2.2,46,46,0,0,0-9.17,7.61,126.34,126.34,0,0,0-12,14.85c-4.31,6.06-8.25,12.38-12.19,18.71-.09.18-.19.27-.19.45v.19A.36.36,0,0,0,157,46.52Z"/><path d="M167,56.46a7.38,7.38,0,0,1-1.93-.55,4,4,0,0,1-1.46-1.56,2,2,0,0,1-.19-.64.81.81,0,0,1,.28-.64.82.82,0,0,1,.73-.37c.18,0,.28.09.46.09A4,4,0,0,1,167,54a3.16,3.16,0,0,0,2.38.91h.83a42.92,42.92,0,0,0,10.81-2.75c.92-.27,1.84-.64,2.76-.82a4.81,4.81,0,0,1,1-.19,2.86,2.86,0,0,1,2.85,3v.37a8.46,8.46,0,0,1-.83,2.93c-.82,1.56-1.65,3-2.57,4.49A96,96,0,0,0,179,71.31a9.75,9.75,0,0,0-.83,2.2A16.07,16.07,0,0,0,180.61,71c2.75-3.21,5.31-6.6,8.34-9.63,1.1-1,2.2-2.11,3.39-3.11.28-.19.46-.37.73-.56a2.78,2.78,0,0,1,1.29-.45c.55,0,1,.36,1.46,1.1a2.81,2.81,0,0,1,.46,1.65,6.36,6.36,0,0,1-.18,1.28,15.55,15.55,0,0,1-1.38,3.58A31.16,31.16,0,0,0,193,69.75a2.75,2.75,0,0,0-.18.83.69.69,0,0,0,.37.64.69.69,0,0,0,.45.19,3.24,3.24,0,0,0,1-.28,21.55,21.55,0,0,0,4.49-2.57c1.47-1,3-2.11,4.5-3.21.36-.27.55-.45.73-.45a.39.39,0,0,1,.37.27.71.71,0,0,1,.18.37c0,.18-.18.46-.55.73a65.12,65.12,0,0,1-8.25,6,3.76,3.76,0,0,1-1.65.73,2.32,2.32,0,0,1-.73.09,1.92,1.92,0,0,1-1.65-.91,4.93,4.93,0,0,1-.92-3.12,8.07,8.07,0,0,1,.09-1.47,20.11,20.11,0,0,1,1.65-5.13c.28-.64.55-1.37.83-2.11a22.49,22.49,0,0,0-3.4,2.39,74,74,0,0,0-9.26,10c-.64.73-1.28,1.56-1.92,2.29a1.72,1.72,0,0,1-1.19.64c-.46,0-.92-.37-1.29-1a3.56,3.56,0,0,1-.45-1.92,7.12,7.12,0,0,1,.09-1.38A18.42,18.42,0,0,1,177.76,67a73.53,73.53,0,0,1,5-8.7c.64-1.1,1.28-2.3,2-3.4a2.77,2.77,0,0,0,.28-.55.33.33,0,0,0,.09-.27c0-.18-.18-.28-.46-.28l-3,.55c-2.85.55-5.69,1.38-8.53,1.84a18.44,18.44,0,0,1-3.21.36c-.27,0-.55.1-.55.28s.09.18.09.27a10.32,10.32,0,0,1,1,4.59,15.11,15.11,0,0,1-1,5.22,22.85,22.85,0,0,1-3.57,6,8.32,8.32,0,0,1-2.2,1.83,2.48,2.48,0,0,1-1.29.37,2.37,2.37,0,0,1-1.83-1,4.58,4.58,0,0,1-1.1-3.21,5.76,5.76,0,0,1,.09-1.19,16.2,16.2,0,0,1,2-5A24.47,24.47,0,0,1,167,58.48a2.73,2.73,0,0,1,1.28-.55c.09,0,.28.09.37.09C168.32,57,167.86,56.55,167,56.46Zm1.28,5.41a25.23,25.23,0,0,0-6.51,8.89c-.09.28-.18.65-.27,1a3.79,3.79,0,0,0-.1.46.77.77,0,0,0,.19.37.68.68,0,0,0,.37.18,1.37,1.37,0,0,0,.55-.18,8.61,8.61,0,0,0,2.84-2.2A17,17,0,0,0,169,63.15a4.41,4.41,0,0,0,.1-1.19v-.55A1.06,1.06,0,0,0,168.23,61.87Z"/><path d="M212.42,67.37A45.59,45.59,0,0,1,207.74,71a15.67,15.67,0,0,1-2.56,1.1,2.09,2.09,0,0,1-.74.09,3.11,3.11,0,0,1-3-3,1.6,1.6,0,0,1,.09-.64,7.2,7.2,0,0,1,1.1-2A16.27,16.27,0,0,1,212,60.22,5.45,5.45,0,0,1,213.7,60a6.5,6.5,0,0,1,2.66.55.73.73,0,0,0,.37.09c.27,0,.46-.19.64-.55A129.23,129.23,0,0,1,224.15,47a106.35,106.35,0,0,1,11.56-16.14,68.09,68.09,0,0,1,7.88-7.51,6.86,6.86,0,0,1,2-1.29,1.77,1.77,0,0,1,.91-.27,2,2,0,0,1,1.38.64,2.38,2.38,0,0,1,.82,1.56,2.17,2.17,0,0,1-.18.73,12,12,0,0,1-1.19,2.48c-2.29,3.57-4.95,6.87-7.52,10.17-4.67,6-9.72,11.65-14.76,17.24-.82.91-1.56,1.83-2.47,2.66a9.38,9.38,0,0,0-2.2,3.39,14.15,14.15,0,0,1-.83,1.65c-.46.73-.18,1.74-.64,2.29a6.33,6.33,0,0,0-1.19,2,73.39,73.39,0,0,0-3.67,12.56,28.69,28.69,0,0,0-.55,4.86v1.46c.09.28.18.46.37.46s.18-.09.27-.18a10.18,10.18,0,0,0,1.1-1c.19-.18.28-.37.46-.37a.77.77,0,0,1,.55.28.92.92,0,0,1,.46.73.85.85,0,0,1-.09.46,4.05,4.05,0,0,1-.92,1.19,2.45,2.45,0,0,1-1.47.73,2.14,2.14,0,0,1-1.55-.91,5.28,5.28,0,0,1-.92-3.3v-1a27.52,27.52,0,0,1,.46-4.77,97.86,97.86,0,0,1,3-12.65c.09-.09.09-.09.09-.27a.29.29,0,0,0-.09-.19C214.35,65.63,213.43,66.45,212.42,67.37Zm.18-4.67a20.23,20.23,0,0,0-7.33,5,7.3,7.3,0,0,0-1.47,1.83,2,2,0,0,0-.27.64c0,.09.09.09.09.19a.68.68,0,0,0,.37.18c.18,0,.36-.09.55-.09s.27-.09.45-.19a6.14,6.14,0,0,0,2.48-1.19,58.37,58.37,0,0,0,7.88-6.41c0-.1.1-.19.19-.46h-.46A7.32,7.32,0,0,0,212.6,62.7Zm12.84-10.64c4.4-5,8.62-10,12.65-15.22,2.29-3.11,4.67-6.32,6.69-9.62a3,3,0,0,0,.64-1.56c-8.43,7.79-15.12,17-20.9,27A1.21,1.21,0,0,0,225.44,52.06Z"/><path d="M240.27,64.54a6.71,6.71,0,0,0,3.21-.83,1.32,1.32,0,0,1,.55-.18.57.57,0,0,1,.55.46.33.33,0,0,1,.09.27c0,.28-.18.46-.55.74a9.14,9.14,0,0,1-4.4,1h-.64c-.92-.09-1.92-.18-2.84-.36a.85.85,0,0,0-.46-.09c-.27,0-.55.18-.73.64a22.68,22.68,0,0,1-4.13,5.22,10.91,10.91,0,0,1-2.93,2,3.24,3.24,0,0,1-1.19.27,2.59,2.59,0,0,1-2.48-2.56,8.89,8.89,0,0,1,.37-2.2,23.53,23.53,0,0,1,3.21-6,2,2,0,0,0,.45-1.1,2.9,2.9,0,0,0-.18-.74,3.66,3.66,0,0,1-.37-1.65,3.19,3.19,0,0,1,3.49-3.11,5.28,5.28,0,0,1,5.13,5.31,6.23,6.23,0,0,1-.09,1.29,6,6,0,0,0-.18,1c0,.45.36.45,1.28.55h1.83C239.63,64.45,240,64.54,240.27,64.54Zm-13.38,6.78a14.45,14.45,0,0,0,6.23-6,.33.33,0,0,0,.09-.27.46.46,0,0,0-.36-.46,5,5,0,0,1-1.29-.37.68.68,0,0,0-.36-.09.63.63,0,0,0-.55.28,32.43,32.43,0,0,0-4,6,1.31,1.31,0,0,0-.18.64v.18Zm2.57-10.72v.27c.64-.82,1.28-1.47,1.83-2.11C229.91,59,229.46,59.49,229.46,60.6Zm3.66,2.2a.68.68,0,0,0-.18.36c0,.09.18.28.55.37h.27c.19,0,.28-.09.46-.37a11.33,11.33,0,0,0,.55-2.29C234.13,61.6,233.67,62.15,233.12,62.8Z"/><path d="M246.23,68.48a78.21,78.21,0,0,1,8-8.62c.82-.73,1.65-1.46,2.47-2.11a3.35,3.35,0,0,1,1.65-.73,1.4,1.4,0,0,1,.83.18A3.23,3.23,0,0,1,261,60.05a6.41,6.41,0,0,1-.55,2.29c-.46,1.46-1.1,3-1.56,4.49a16.87,16.87,0,0,0-.64,2v.55a.69.69,0,0,0,.18.55.36.36,0,0,0,.28.09,3.89,3.89,0,0,0,.73-.28c.19-.09.46-.18.65-.27a44,44,0,0,0,7.51-4.77,9.94,9.94,0,0,1,1-.82.45.45,0,0,1,.37-.19.64.64,0,0,1,.36.19c.19.09.19.27.19.45a.57.57,0,0,1-.19.46l-.36.37A47.1,47.1,0,0,1,260.81,71l-.55.28a4.08,4.08,0,0,1-1.28.37,2.34,2.34,0,0,1-2.21-1.84,4,4,0,0,1-.36-1.74,9.21,9.21,0,0,1,.18-1.56,22.76,22.76,0,0,1,1.19-4.95,1.6,1.6,0,0,0,.19-.73.73.73,0,0,0-.09-.37,22.16,22.16,0,0,0-2.39,1.74,81.11,81.11,0,0,0-9.72,9.54,20.35,20.35,0,0,1-2.38,2.56c-.37.28-.82.74-1.37.74a.69.69,0,0,1-.37-.09A2.42,2.42,0,0,1,240.37,73V72.6a3.77,3.77,0,0,1,.09-1A20.43,20.43,0,0,1,241.92,67a61.58,61.58,0,0,1,6.79-11.27,12,12,0,0,1,1.1-1.2c.27-.18.46-.36.64-.36a1.22,1.22,0,0,1,.64.27A3.39,3.39,0,0,1,252.28,56a.86.86,0,0,1,.09.46,1.29,1.29,0,0,1-.45.92c-.83,1.28-1.75,2.56-2.57,3.85-1.93,2.84-3.85,5.68-5.5,8.61-.37.65-.64,1.29-1,1.93a.28.28,0,0,0,.18.09A27.81,27.81,0,0,0,246.23,68.48ZM258.06,47h.27a2.36,2.36,0,0,1,1.75.91,10.53,10.53,0,0,1,1.19,2.66l.27,1.1a.87.87,0,0,0,.83.74,1,1,0,0,0,.46-.1,3.68,3.68,0,0,0,2.1-2.65v-.46a.62.62,0,0,1,.46-.37.37.37,0,0,1,.37.18,1.92,1.92,0,0,1,.64,1.2,1.56,1.56,0,0,1,.09.64,4.12,4.12,0,0,1-2.29,3.57,2.25,2.25,0,0,1-1.1.19,2.43,2.43,0,0,1-2-1.1A11.42,11.42,0,0,1,259.8,51c-.18-.55-.28-.83-.55-.83a1.5,1.5,0,0,0-.73.28A4.2,4.2,0,0,0,256,53c-.09.18-.18.36-.37.36s-.18-.09-.36-.18a2.7,2.7,0,0,1-.74-2A4.48,4.48,0,0,1,258.06,47Z"/><path d="M267.41,68.79a18.23,18.23,0,0,1,3.85-10.54,4.87,4.87,0,0,1,3.3-2.11c.83,0,1.47.55,1.47,1.74a6,6,0,0,0,1.28,3.21,5.91,5.91,0,0,0,4,1.46,11.59,11.59,0,0,0,4.77-1.19,3.44,3.44,0,0,1,1.38-.36c.46,0,.64.18.64.36,0,.37-.46.92-1.47,1.38a11.81,11.81,0,0,1-5.59,1.46,9,9,0,0,1-3.76-.82c-.18,0-.27.09-.37.64-.55,5.32-3.75,10.09-6.32,10.09A1.23,1.23,0,0,1,270,74C268.24,73.46,267.41,71.45,267.41,68.79Zm7.7-6.14a2.15,2.15,0,0,0-.27-1.2,4.17,4.17,0,0,1-.46-.82c-.09-.09-.19-.18-.28-.18-1,0-3.3,6.14-3.3,9.44,0,.92,0,1.19.28,1.19a1.47,1.47,0,0,0,.55-.27C273.37,69.52,275.11,65,275.11,62.65Z"/></g></g></svg>